<svg id="visual" viewBox="0 0 960 540" width="960" height="540" xmlns="http://www.w3.org/2000/svg" xmlns:xlink="http://www.w3.org/1999/xlink" version="1.1"><rect x="0" y="0" width="960" height="540" fill="#FFFFFF"/><path d="M0 203L20 193.8C40 184.7 80 166.3 120 154.7C160 143 200 138 240 139.2C280 140.3 320 147.7 360 137.2C400 126.7 440 98.3 480 92.3C520 86.3 560 102.7 600 118.3C640 134 680 149 720 159.2C760 169.3 800 174.7 840 170.7C880 166.7 920 153.3 940 146.7L960 140L960 0L940 0C920 0 880 0 840 0C800 0 760 0 720 0C680 0 640 0 600 0C560 0 520 0 480 0C440 0 400 0 360 0C320 0 280 0 240 0C200 0 160 0 120 0C80 0 40 0 20 0L0 0Z" fill="#ff4d08"/><path d="M0 145L20 136.3C40 127.7 80 110.3 120 109.5C160 108.7 200 124.3 240 138.5C280 152.7 320 165.3 360 167.2C400 169 440 160 480 150.5C520 141 560 131 600 127.5C640 124 680 127 720 128.8C760 130.7 800 131.3 840 121.5C880 111.7 920 91.3 940 81.2L960 71L960 0L940 0C920 0 880 0 840 0C800 0 760 0 720 0C680 0 640 0 600 0C560 0 520 0 480 0C440 0 400 0 360 0C320 0 280 0 240 0C200 0 160 0 120 0C80 0 40 0 20 0L0 0Z" fill="#ff5a0c"/><path d="M0 64L20 78.5C40 93 80 122 120 137.2C160 152.3 200 153.7 240 144.3C280 135 320 115 360 112.8C400 110.7 440 126.3 480 121.8C520 117.3 560 92.7 600 92.7C640 92.7 680 117.3 720 129C760 140.7 800 139.3 840 138C880 136.7 920 135.3 940 134.7L960 134L960 0L940 0C920 0 880 0 840 0C800 0 760 0 720 0C680 0 640 0 600 0C560 0 520 0 480 0C440 0 400 0 360 0C320 0 280 0 240 0C200 0 160 0 120 0C80 0 40 0 20 0L0 0Z" fill="#ff6511"/><path d="M0 100L20 94.2C40 88.3 80 76.7 120 76.8C160 77 200 89 240 92.5C280 96 320 91 360 91.3C400 91.7 440 97.3 480 94C520 90.7 560 78.3 600 69.3C640 60.3 680 54.7 720 59.5C760 64.3 800 79.7 840 81.8C880 84 920 73 940 67.5L960 62L960 0L940 0C920 0 880 0 840 0C800 0 760 0 720 0C680 0 640 0 600 0C560 0 520 0 480 0C440 0 400 0 360 0C320 0 280 0 240 0C200 0 160 0 120 0C80 0 40 0 20 0L0 0Z" fill="#ff6f17"/><path d="M0 97L20 90.2C40 83.3 80 69.7 120 65.5C160 61.3 200 66.7 240 69.5C280 72.3 320 72.7 360 77.5C400 82.3 440 91.7 480 91C520 90.3 560 79.7 600 76.7C640 73.7 680 78.3 720 73.2C760 68 800 53 840 47.8C880 42.7 920 47.3 940 49.7L960 52L960 0L940 0C920 0 880 0 840 0C800 0 760 0 720 0C680 0 640 0 600 0C560 0 520 0 480 0C440 0 400 0 360 0C320 0 280 0 240 0C200 0 160 0 120 0C80 0 40 0 20 0L0 0Z" fill="#ff791d"/><path d="M0 33L20 32.3C40 31.7 80 30.3 120 31.5C160 32.7 200 36.3 240 43.8C280 51.3 320 62.7 360 63.7C400 64.7 440 55.3 480 47.2C520 39 560 32 600 36.7C640 41.3 680 57.7 720 57.3C760 57 800 40 840 36.2C880 32.3 920 41.7 940 46.3L960 51L960 0L940 0C920 0 880 0 840 0C800 0 760 0 720 0C680 0 640 0 600 0C560 0 520 0 480 0C440 0 400 0 360 0C320 0 280 0 240 0C200 0 160 0 120 0C80 0 40 0 20 0L0 0Z" fill="#fe8124"/><path d="M0 24L20 24C40 24 80 24 120 23C160 22 200 20 240 21.8C280 23.7 320 29.3 360 31.7C400 34 440 33 480 32.7C520 32.3 560 32.7 600 33.7C640 34.7 680 36.3 720 38.5C760 40.7 800 43.3 840 41.8C880 40.3 920 34.7 940 31.8L960 29L960 0L940 0C920 0 880 0 840 0C800 0 760 0 720 0C680 0 640 0 600 0C560 0 520 0 480 0C440 0 400 0 360 0C320 0 280 0 240 0C200 0 160 0 120 0C80 0 40 0 20 0L0 0Z" fill="#fe8a2b"/></svg>